HIERARCHY
ROOT root
{
	OFFSET 0.000000 0.000000 0.000000
	CHANNELS 6 Xposition Yposition Zposition Xrotation Yrotation Zrotation
	JOINT lhip
	{
		OFFSET 0.070959 -0.088275 -0.004614
		CHANNELS 3 Xrotation Yrotation Zrotation
		JOINT lknee
		{
			OFFSET 0.025989 -0.336814 -0.009523
			CHANNELS 3 Xrotation Yrotation Zrotation
			JOINT lankle
			{
				OFFSET -0.010352 -0.351866 -0.041202
				CHANNELS 3 Xrotation Yrotation Zrotation
				JOINT ltoe
				{
					OFFSET 0.024024 -0.050995 0.108131
					CHANNELS 3 Xrotation Yrotation Zrotation
					End Site
					{
						OFFSET 0.000000 0.000000 0.000000
					}
				}
			}
		}
	}
	JOINT rhip
	{
		OFFSET -0.068819 -0.088158 -0.002027
		CHANNELS 3 Xrotation Yrotation Zrotation
		JOINT rknee
		{
			OFFSET -0.030877 -0.343190 -0.011487
			CHANNELS 3 Xrotation Yrotation Zrotation
			JOINT rankle
			{
				OFFSET 0.012578 -0.352772 -0.039984
				CHANNELS 3 Xrotation Yrotation Zrotation
				JOINT rtoe
				{
					OFFSET -0.021059 -0.043197 0.111512
					CHANNELS 3 Xrotation Yrotation Zrotation
					End Site
					{
						OFFSET 0.000000 0.000000 0.000000
					}
				}
			}
		}
	}
	JOINT lowerback
	{
		OFFSET -0.002378 0.101997 -0.024726
		CHANNELS 3 Xrotation Yrotation Zrotation
		JOINT upperback
		{
			OFFSET 0.003623 0.126344 -0.002391
			CHANNELS 3 Xrotation Yrotation Zrotation
			JOINT chest
			{
				OFFSET 0.002149 0.049042 0.029168
				CHANNELS 3 Xrotation Yrotation Zrotation
				JOINT lowerneck
				{
					OFFSET -0.001307 0.203584 -0.053976
					CHANNELS 3 Xrotation Yrotation Zrotation
					JOINT upperneck
					{
						OFFSET 0.002365 0.059131 0.047952
						CHANNELS 3 Xrotation Yrotation Zrotation
						End Site
						{
							OFFSET 0.000000 0.000000 0.000000
						}
					}
				}
				JOINT lclavicle
				{
					OFFSET 0.075812 0.117092 -0.037717
					CHANNELS 3 Xrotation Yrotation Zrotation
					JOINT lshoulder
					{
						OFFSET 0.084646 0.028877 -0.008617
						CHANNELS 3 Xrotation Yrotation Zrotation
						JOINT lelbow
						{
							OFFSET 0.232714 -0.006813 -0.026627
							CHANNELS 3 Xrotation Yrotation Zrotation
							JOINT lwrist
							{
								OFFSET 0.219618 0.007356 0.000161
								CHANNELS 3 Xrotation Yrotation Zrotation
								End Site
								{
									OFFSET 0.000000 0.000000 0.000000
								}
							}
						}
					}
				}
				JOINT rclavicle
				{
					OFFSET -0.077496 0.114750 -0.042857
					CHANNELS 3 Xrotation Yrotation Zrotation
					JOINT rshoulder
					{
						OFFSET -0.088601 0.029755 -0.011487
						CHANNELS 3 Xrotation Yrotation Zrotation
						JOINT relbow
						{
							OFFSET -0.227785 -0.009114 -0.019501
							CHANNELS 3 Xrotation Yrotation Zrotation
							JOINT rwrist
							{
								OFFSET -0.226418 0.008456 -0.002534
								CHANNELS 3 Xrotation Yrotation Zrotation
								End Site
								{
									OFFSET 0.000000 0.000000 0.000000
								}
							}
						}
					}
				}
			}
		}
	}
}
MOTION
Frames: 14
Frame Time: 0.033333
-1.740120 -0.022363 0.761763 85.927050 -34.267828 -5.404457 -11.803579 -0.559209 4.200375 16.783446 -9.365044 -2.229920 -14.307546 7.052942 5.003057 2.352177 -0.108456 -2.641824 6.741559 -4.825812 -0.033665 4.214879 2.749245 1.512402 -9.555891 -5.213999 0.384375 0.442922 0.697232 -0.501870 13.626122 4.877775 -0.443287 5.479010 -2.282354 1.588082 -6.831212 0.592324 0.628446 0.077656 -0.531869 2.592993 9.225240 -4.992965 -0.448224 1.189686 -3.747960 -34.815593 4.267845 -9.686561 -50.035261 7.333865 -9.214874 10.587653 8.333466 -6.376620 -8.514076 0.137500 4.764380 33.860434 9.624401 5.570145 45.443161 9.707666 16.709785 -12.430038 1.630557 3.183438 8.073097 
-1.740655 -0.019259 0.762294 85.797174 -34.618639 -5.683008 -12.456984 -0.451148 4.375791 17.720568 -9.036882 -2.193103 -14.382830 7.116859 4.966445 2.255889 -0.114515 -2.574593 6.772592 -4.628361 0.094024 3.828831 2.806758 1.806863 -9.234063 -4.998872 0.556772 0.433503 0.601829 -0.501610 14.167522 4.854148 -0.109443 5.280037 -2.350389 1.720279 -6.696435 0.694159 0.665058 -0.252396 -0.340659 2.467352 9.197476 -4.974167 -0.543894 1.067839 -3.814504 -34.896063 3.968366 -9.567569 -50.213981 7.097882 -9.001416 10.623348 8.650734 -6.316297 -8.164638 0.169039 4.813700 33.904944 9.790849 5.671619 45.748384 9.982187 17.005178 -12.975255 1.624553 3.146973 7.832939 
-1.742197 -0.015492 0.763813 85.659529 -35.275454 -5.977169 -12.804005 -0.587075 4.535530 18.842800 -9.096302 -1.905282 -14.440022 7.322111 4.924803 2.145915 -0.056362 -2.478292 6.570457 -4.319040 0.551729 3.833006 3.096936 1.699280 -9.183399 -4.815423 0.601891 0.476661 0.613747 -0.444768 14.490746 5.033033 0.205307 5.202440 -2.342866 1.581263 -6.509186 0.570904 0.732744 -0.476805 -0.400110 2.484208 9.008189 -4.947989 -0.532183 1.000607 -3.624434 -34.645850 3.969086 -9.232097 -49.991054 6.762403 -9.731233 11.167296 8.678579 -6.252388 -7.527044 0.009290 4.726382 33.904389 10.019141 6.327949 45.794368 10.665777 17.058649 -13.311254 2.245155 2.973730 7.316385 
-1.744269 -0.013091 0.764711 85.200872 -35.861221 -6.481689 -11.968789 -0.542712 4.783630 18.441470 -9.143841 -1.842020 -14.486851 7.586299 5.014577 2.243978 -0.138536 -2.448131 7.364369 -3.989838 0.900255 2.876712 3.516081 1.465452 -9.187143 -4.586515 0.575037 0.534695 0.423599 -0.288199 14.416222 5.078730 0.204092 5.501480 -2.378774 1.450222 -6.470155 0.907857 0.903666 -0.169367 0.081685 2.606995 9.009255 -4.826312 -0.563021 1.111478 -3.098381 -34.428373 3.700808 -9.222190 -49.332988 6.342959 -10.509000 11.474577 8.412623 -6.458076 -7.377122 0.090011 4.799991 34.186086 9.990244 6.217169 46.224812 10.128604 15.715881 -12.843019 2.252627 2.861899 7.241957 
-1.745100 -0.011593 0.765617 84.682913 -35.954676 -6.933961 -11.639807 -0.542627 4.847867 18.890441 -9.213433 -1.760352 -14.741753 7.728065 5.131976 2.212812 -0.025045 -2.397194 7.565041 -4.028711 0.928099 3.058449 3.581958 1.473154 -9.298102 -4.443336 0.756442 0.552805 0.333985 -0.215859 14.417729 5.017816 0.251280 5.621418 -2.271802 1.568333 -6.466227 0.894619 0.913392 -0.120974 0.296931 2.589958 9.129782 -4.670570 -0.739696 0.779921 -3.149088 -34.252720 3.445804 -9.541402 -49.213678 6.631975 -11.756444 12.069573 8.721583 -6.414233 -6.943841 -0.067099 5.199726 34.214902 9.874491 6.461316 46.311127 10.418168 15.123756 -12.824987 3.043082 2.578072 7.062685 
-1.744717 -0.009981 0.765636 84.152485 -35.943899 -7.224608 -11.612047 -0.562370 4.828606 20.029984 -9.518126 -1.782532 -15.069650 7.767398 5.426889 2.134810 0.019938 -2.315191 7.101078 -3.812397 0.878856 4.761278 3.460575 1.424465 -9.805275 -4.673773 0.572462 0.547565 0.281445 -0.156607 14.708825 4.710615 0.088880 5.684300 -2.305079 1.520871 -6.376330 0.965777 1.070342 -0.411645 0.617264 2.781235 9.414692 -4.796486 -0.823102 0.407586 -3.152569 -34.094109 3.114690 -9.553682 -48.642410 6.555261 -12.792698 12.225322 8.599683 -6.712490 -7.116144 -0.302280 5.430402 34.543432 9.714734 6.837652 46.380751 9.981123 14.130281 -13.089161 3.686237 2.310884 7.141800 
-1.744687 -0.007116 0.766119 83.303733 -35.912204 -7.495323 -11.621406 -0.432232 4.598890 21.180506 -9.590750 -1.728564 -15.438168 7.961247 5.422753 2.161276 0.028550 -2.238999 6.962964 -3.656001 0.787229 6.063262 3.582909 1.505057 -10.077722 -4.764271 0.558870 0.463729 0.338319 -0.271094 15.320496 4.827191 -0.061224 5.932658 -2.482696 1.601166 -6.431133 0.854792 1.094955 -0.602355 1.056141 2.704335 9.706765 -4.986819 -1.073967 -0.164273 -3.813087 -34.385755 2.837674 -9.640403 -48.091967 6.153062 -12.918960 12.218824 9.671146 -6.418519 -5.809539 -0.514309 6.153915 34.974802 9.901818 7.791660 46.399943 10.539407 13.999030 -13.990841 4.927858 2.249451 5.955031 
-1.742982 -0.005232 0.767812 83.097426 -35.539297 -7.241352 -12.110880 -0.701784 4.067440 21.809338 -9.349603 -1.860160 -15.284670 7.860728 5.415467 2.165526 0.083986 -2.124825 6.626560 -3.679755 0.460306 6.635981 3.684131 1.626497 -9.807316 -5.065723 0.506681 0.412618 0.260811 -0.378079 15.494542 4.624356 0.131193 5.798181 -2.565930 1.883131 -6.212903 0.945917 1.005521 -0.894698 1.127433 2.457821 9.855047 -4.998368 -1.167043 -0.346201 -4.068069 -34.235740 2.264768 -10.588308 -48.085686 6.562560 -13.769847 12.344276 9.863404 -6.439445 -4.899420 -0.544140 6.020231 35.106728 9.984650 7.740978 46.376349 10.027744 13.596766 -13.784437 5.255422 2.175566 5.629038 
-1.740765 -0.003548 0.767623 83.030358 -34.834642 -7.074749 -12.098312 -1.078268 3.448220 21.674303 -9.442424 -1.829008 -15.465306 8.059900 5.555367 2.144377 0.119652 -2.047796 6.087730 -3.511916 0.235282 7.736824 3.654732 1.411773 -10.213230 -5.484940 0.480241 0.614106 0.257078 -0.295315 15.126536 4.484565 0.243468 5.891696 -2.695223 1.859623 -6.325374 0.887642 0.936042 -0.567030 1.624361 2.299069 10.003961 -4.462037 -1.429941 -0.592251 -3.822442 -33.838340 2.137126 -10.907018 -47.823096 6.674819 -14.640789 12.659239 9.251162 -6.685648 -4.793532 -0.412005 5.937293 34.960684 10.178136 8.027416 46.818294 10.022647 13.116666 -13.270859 4.327459 2.118042 6.177227 
-1.739125 -0.003448 0.766770 82.516346 -34.044317 -6.990603 -12.096512 -1.087198 3.141039 22.061215 -10.000710 -2.038575 -15.459970 7.800138 5.489881 2.125703 0.189948 -2.168621 6.329649 -3.629559 -0.058925 8.290861 3.390081 1.093333 -10.391430 -6.041251 0.215636 0.630542 0.219535 -0.340435 15.224787 4.303586 -0.061840 5.939973 -2.765440 2.042088 -6.159824 0.611583 0.926403 -0.545718 1.584650 2.376577 10.077679 -4.563970 -1.443581 -0.835463 -3.826064 -33.842718 1.776489 -11.226945 -47.497660 6.674417 -15.603918 12.736776 8.993443 -6.748116 -4.213806 -0.607265 5.555049 35.005069 10.769887 8.021411 47.254864 10.079524 14.065107 -14.032123 3.772609 2.299775 6.029618 
-1.738084 -0.004431 0.765719 82.124201 -33.446654 -6.930953 -11.693126 -0.906200 2.791894 21.718426 -10.297696 -2.291803 -15.102699 7.358914 5.404802 2.075283 0.303342 -2.146178 6.999642 -3.935805 -0.518036 8.007059 3.215511 0.933622 -10.193130 -6.155038 0.158859 0.616329 0.260351 -0.348480 15.155513 4.141976 -0.023768 6.087036 -2.745475 2.038113 -6.220139 0.519873 0.945568 -0.299189 1.572757 2.407910 10.226130 -4.518237 -1.589661 -0.936559 -4.180139 -33.791412 1.677943 -11.356924 -47.174998 6.878843 -15.982793 12.439489 8.523448 -7.099599 -5.011231 -0.686865 5.788468 35.131693 10.878706 8.131279 47.057283 10.616988 14.407082 -13.755927 3.730866 2.329007 6.917213 
-1.736163 -0.005037 0.765867 81.573715 -33.173518 -7.112496 -11.131753 -0.753769 2.302540 21.480762 -10.474797 -2.182534 -15.262570 7.453127 5.482779 2.182513 0.363065 -2.209076 7.550660 -4.038666 -0.558844 7.894639 3.139386 0.611189 -10.365548 -6.259766 0.139637 0.591148 0.232660 -0.349816 15.412342 4.222394 0.120673 6.152052 -2.877345 1.951079 -6.246163 0.431311 0.997245 -0.280470 1.598066 2.533384 10.271059 -4.571716 -1.643990 -1.155652 -3.865548 -33.495669 1.340497 -11.212959 -46.998311 6.166225 -16.380447 12.306090 8.050944 -7.017640 -4.840999 -0.687885 5.572472 35.074619 11.055452 8.255863 47.322260 10.891945 15.405028 -14.198130 3.389412 2.474658 7.127710 
-1.734915 -0.006873 0.765450 81.246400 -32.993260 -7.194828 -10.395267 -0.761212 1.894740 20.920402 -10.754029 -2.229449 -15.352860 7.414161 5.582907 2.164299 0.365364 -2.248847 7.886113 -3.954378 -0.687685 8.177701 3.209572 0.352225 -10.580676 -6.440803 0.109978 0.667266 0.225109 -0.403828 14.997171 4.240726 0.175604 6.239971 -2.744994 1.954421 -6.236561 0.578942 0.898823 -0.120690 1.624829 2.459275 10.541036 -4.690167 -1.725884 -1.337926 -3.552555 -33.386017 1.383467 -11.035193 -46.661518 5.986841 -15.736138 12.095366 8.550741 -6.975294 -5.243982 -0.869824 5.674619 35.203076 11.058201 8.335236 47.043848 11.366476 14.821467 -13.834917 3.959354 2.542708 7.812822 
-1.733438 -0.008684 0.765395 81.305748 -32.755045 -7.076446 -9.442732 -0.683740 1.516065 19.294632 -10.858778 -2.369216 -15.144187 7.370582 5.526388 2.195760 0.388296 -2.267747 7.971481 -3.934458 -0.876197 8.344024 3.348299 0.370054 -10.197768 -6.524086 0.253392 0.766121 0.249861 -0.392653 14.331565 4.037172 0.097098 6.169779 -2.629932 2.150709 -6.149240 0.714058 0.810894 0.028621 1.689186 2.529166 10.759082 -4.669376 -1.904718 -1.256961 -3.330849 -33.415359 1.447847 -10.862123 -46.960167 5.554811 -14.880736 11.704792 8.192605 -6.775441 -5.322577 -0.915087 5.656120 34.971950 11.055653 8.705219 46.954997 11.492147 15.445393 -14.066344 3.779208 2.669154 7.854664 
